<?xml version="1.0" encoding="utf-8"?>
<!-- Generator: Adobe Illustrator 15.0.0, SVG Export Plug-In . SVG Version: 6.00 Build 0)  -->
<!DOCTYPE svg PUBLIC "-//W3C//DTD SVG 1.1//EN" "http://www.w3.org/Graphics/SVG/1.1/DTD/svg11.dtd">
<svg version="1.1" id="レイヤー_1" xmlns="http://www.w3.org/2000/svg" xmlns:xlink="http://www.w3.org/1999/xlink" x="0px"
	 y="0px" width="300px" height="350px" viewBox="0 0 300 350" enable-background="new 0 0 300 350" xml:space="preserve">
<g id="map">
	<path fill="#038952" d="M269.822,106.621c-2.305-0.257-7.418-4.865-8.959-5.886c-1.532-1.025-7.163-4.865-10.236-7.679
		c-3.07-2.814-4.604-7.422-5.885-12.026c-1.28-4.608-15.867-7.422-17.146-7.675c-1.277-0.258-2.051-0.515-2.812-2.819
		c-0.766-2.3-5.631-9.464-7.424-9.979c-1.791-0.511-3.327-3.583-4.351-5.629c-1.021-2.046-5.887-4.093-7.929-4.86
		c-2.051-0.769-3.587-3.84-5.372-5.119c-1.793-1.278-1.535-0.768-2.308,1.536c-0.765,2.303-1.278,3.841-2.56,5.372
		c-1.276,1.536-2.558,1.025-0.771,4.097c1.793,3.068,1.793,3.583-1.021,2.046c-2.814-1.536-7.164-2.557-8.188-3.325
		c-1.021-0.768-2.051,1.532-2.814,2.3c-0.771,0.768-7.423,1.025-9.725,1.025c-2.305,0-6.398,3.072-8.447,3.325
		c-2.04,0.258-5.629,5.119-8.188,7.676c-2.562,2.561-7.427,1.793-10.236-0.253c-2.813-2.047-5.373,1.789-7.933,3.583
		c-2.559,1.795-2.557,2.304-4.609,1.538c-2.051-0.767-4.091-2.049-7.675-0.513c-3.583,1.535-5.886,3.325-8.955,3.837
		c-3.071,0.515-2.822-1.281-4.35-2.814c-1.536-1.538-3.586-4.353-5.379-5.627c-1.787-1.281-6.134-2.557-7.67-2.557
		c-1.538,0-2.05,2.047-3.074,1.278c-1.029-0.768-3.329-3.072-5.369-3.583c-2.051-0.51-2.814-2.304-4.867-4.097
		c-2.05-1.789-5.37-1.536-7.422-2.557c-2.05-1.025-4.859-3.072-6.65-4.861c-1.793-1.793-5.122-2.046-6.4-3.329
		c-1.279-1.281-1.279-5.372-1.539-7.418c-0.257-2.051-1.021-1.027-3.578-1.287c-2.555-0.253-1.282-0.51-4.865-2.555
		c-3.583-2.044-3.836-5.884-4.093-7.677c-0.257-1.789-3.836-5.627-5.629-7.169c-1.793-1.532-3.072-2.814-5.629-5.37
		c-2.56-2.561-4.865-4.353-5.631-7.681c-0.766-3.325-2.296-7.418-5.621-6.65c-2.144,0.495-2.693,2.041-2.814,3.087
		c0.822,3.434,2.226,8.233,3.836,9.196c2.557,1.532,6.649,4.604,6.649,7.675c0,3.068-1.532,7.679,1.028,9.726
		c2.559,2.044,7.165,17.401,8.699,18.934c1.538,1.54,8.192,13.819,8.701,17.916c0.511,4.093,0.384,21.943-0.511,24.051
		c-0.369,0.854-0.77,1.517-1.22,2.141c-0.376,1.206-0.354,2.536-0.191,3.875c0.195,1.532,2.306,3.066,2.306,4.409
		c0,1.349,0,7.68,0.382,8.257c0.382,0.577,4.222,4.989,3.263,6.911c-0.96,1.917-5.374,3.645-6.334,4.413
		c-0.961,0.772-0.611,5.493-0.38,6.911c0.072,0.46,0.072,0.991-0.096,1.61l0.32-0.195l0.36-1.197l0.44-1.858l0.355-2.085
		l0.397,2.085l-0.972,2.786v0.709l-0.177,0.312l-1.638,1.333c-0.212,0.316-0.469,0.651-0.772,1.006l-0.339,0.807v1.988l3.633,1.064
		l1.017-0.885l0.355,0.09c0,0,0.532,2.128,0.573,2.167c0.047,0.047,0.312,0.222,0.312,0.222l2.218-1.903l-1.727-1.547l-0.222,0.085
		l-0.312-0.312l0.132-0.397l-0.842-1.15c0,0,1.064,0.974,1.286,0.84l0.129,0.269l0.448,0.216l0.618-0.797l0.448,0.451l-0.448,0.616
		l1.154,1.419l6.907-4.873l-5.313-4.514l3.274-2.928l2.425,0.148c2.304,0-1.274-2.814-1.274-2.814h2.814c0,0,4.351,1.793,5.37,2.3
		c1.023,0.514,1.023-1.788,0.517-2.553c-0.517-0.772,2.298-0.515,2.298-0.515l0.257,2.046l-0.257,2.045l3.331,0.768l-2.566,1.027
		l-0.254,1.279h1.285c0,0,2.814,0.257,3.578-1.025c0.772-1.281,6.401,4.611,6.658,5.886c0.25,1.278,3.579,3.069,5.114,5.377
		c1.538,2.298,4.867,5.88,6.146,6.138c1.278,0.253-1.538-4.093-0.774-4.351c0.774-0.257,2.814,2.814,3.072,3.583
		c0.257,0.768,2.3,0.511,2.3,0.511s-1.788,3.072-2.558,2.814c-0.764-0.253-2.041,0.515-2.041,2.304c0,1.793,0.255,2.814,0.255,2.814
		h3.836c0.77,0,1.023-3.325,1.023-3.325s1.278,2.304,0.257,3.836c-1.021,1.536-3.072,1.793-3.072,1.793l2.814,2.814
		c0,0-2.042,0.257-2.814,0.257c-0.764,0-0.764,2.047-1.793,2.304c-1.021,0.254-3.071-1.538-3.071-1.538L95.3,162.91
		c0,0-1.021-0.768-1.791-0.768c-0.767,0-1.281,0.253-1.538,1.021c-0.25,0.77,0.771,1.54,0,2.815l-2.041,0.257l-1.538,2.304
		l0.257,2.304l-1.536,0.253l-1.792,1.537c0,0,1.021,3.325,0,2.557l-3.33,2.051l1.029,1.536l-0.257,3.064l-2.555-1.275l-2.814,1.793
		l0.764,1.275v2.561l-3.836-4.094l-3.586,1.535c0,0,1.791,3.323,2.049,4.604c0.257,1.275-3.584,1.281-3.584,1.281l0.513-1.281
		l0.516-2.049c0,0-1.793,0.514-2.565,0.514c-0.764,0-1.53,2.049-1.021,3.329c0.515,1.28-2.299,0.769-5.886,1.539
		c-3.579,0.768-4.353,2.555-5.629,5.368c-1.278,2.816,2.05,5.885,3.33,7.166c1.278,1.281,0,2.562,0,2.562l-1.539,2.296v2.053
		c0,0-2.299-0.77-3.067,0c-0.764,0.77,2.556,2.303,0.768,3.065c-1.793,0.771-8.958-2.812-10.49-3.324
		c-1.54-0.511-1.793,0.515-1.793,1.535c0,1.029,2.557,2.56,3.325,3.582c0.768,1.024-0.511,1.54-1.532,1.54
		c-1.027,0-2.561-2.305-2.561-2.305s-1.536,0.513-1.536,1.535c0,1.024-2.815,1.793-2.304,2.56c0.511,0.769,4.097,2.31,4.097,2.31
		s-2.308,2.299-3.072,2.299c-0.768,0-2.308,2.302-3.329,3.07c-1.025,0.771-0.253,2.043,1.793,3.072
		c2.047,1.021,6.14,5.113,7.418,7.934c1.283,2.812,4.097,12.282,4.097,14.328c0,2.053-2.304,2.049-4.351,2.814
		c-2.048,0.77-4.867,4.098-6.654,6.145c-1.789,2.047-1.285,7.676-1.538,11.006c-0.253,3.323,2.304,1.021,4.609,3.323
		c2.304,2.306,0,5.63-1.793,8.697c-1.787,3.069,0.511,2.562,1.793,4.606c1.279,2.045,0,3.838-2.561,6.145
		c-2.553,2.3-2.3,3.836-0.253,5.629c2.047,1.789,1.532,5.114-0.257,5.376c-1.789,0.253-2.304,0.511-1.285,1.785
		c1.028,1.276,3.589,2.047,4.614,1.789c1.021-0.254,4.093,3.582,4.604,4.605c0.514,1.021-0.253,4.606-1.532,5.888
		c-1.28,1.276-3.071-0.259-3.84-0.259c-0.773,0-2.818-0.512-2.561,0.259c0.257,0.769-2.557,3.323-4.863,3.582
		c-2.306,0.258-4.861,1.021-8.699-0.513c-3.84-1.534-3.583,3.836-2.304,5.119c1.278,1.277,2.557,0.51,5.118,1.021
		c2.56,0.511,8.19,5.116,10.237,7.938c2.047,2.812-0.51,6.14,3.072,7.164c3.583,1.025,10.748,1.279,12.535,2.047
		c1.793,0.765,0.513-2.047,2.818-2.561c2.3-0.513,9.722-5.631,12.537-8.444c2.815-2.816,2.05-8.441,1.793-9.726
		c-0.259-1.278,1.536-7.677,6.65-14.072c5.121-6.396,7.937-6.146,11.771-9.728c3.834-3.584,6.908-1.785,9.722-4.094
		c2.814-2.306,4.35-2.048,4.35-3.582c0-1.535,1.285-2.562,1.023-4.095c-0.25-1.535,1.287-5.118,3.33-5.886
		c2.05-0.77,3.843-0.77,5.12-0.77c1.278,0,4.093-2.562,5.629-2.812c1.536-0.258,2.814,2.303,3.835,2.303s1.793-1.533,2.3,1.021
		c0.515,2.558,3.333,1.537,3.844,0.769c0.507-0.769,3.583-1.021,4.861-1.276c1.281-0.258,2.815-3.584,5.118-4.605
		c2.3-1.025,4.608-0.771,5.37,0c0.773,0.77,2.561-0.514,3.331-1.537c0.768-1.021,4.861-3.322,5.628-3.836
		c0.767-0.521-0.254,2.296,1.539,3.836c1.787,1.537,2.808-4.863,2.808-6.143c0-1.275,3.842-5.114,4.614-6.143
		c0.764-1.025,2.553,0.256,5.113,0c2.559-0.254,3.069-4.352,3.069-4.352s0.769-1.535,1.533-4.605
		c0.77-3.072,3.325-7.424,2.817-9.979c-0.516-2.559-1.281-9.729-0.258-12.532c1.021-2.815,1.791-6.404-0.258-9.979
		c-2.042-3.584-4.607-14.334-0.26-31.987c4.354-17.66,11.011-24.569,11.773-25.335c0.771-0.768,2.812-2.304,3.586-4.351
		c18.68-29.685,53.73-44.786,56.041-45.803c2.301-1.029,3.065,2.296,5.629,2.296c2.557,0,6.651,0.257,10.483-2.042
		c3.847-2.304,11.011-2.819,12.804-2.047c1.783,0.767,3.065,4.347,6.395,6.14c3.333,1.793,0.768-4.093,0.26-6.396
		c-0.513-2.3,1.789-4.861,2.297-6.393c0.508-1.516-1.475-2.284-2.019-3.041C276.461,106.523,271.7,106.827,269.822,106.621"/>
	<g>
		<path fill="#D70D19" d="M309.1,217.68c0.365,0.4,0.564,0.926,0.564,1.471c0,1.219-0.984,2.203-2.201,2.203
			s-2.203-0.984-2.203-2.203c0-0.629,0.256-1.199,0.731-1.635c0.39-0.354,0.936-0.564,1.472-0.564
			C308.098,216.949,308.669,217.204,309.1,217.68z M305.956,217.8c-0.335,0.37-0.521,0.851-0.521,1.351
			c0,1.117,0.904,2.022,2.021,2.022c1.11,0,2.019-0.905,2.019-2.022c0-0.584-0.229-1.101-0.672-1.5
			c-0.354-0.33-0.854-0.521-1.347-0.521C306.872,217.129,306.352,217.363,305.956,217.8z M308.943,219.161
			c0,0.815-0.66,1.481-1.48,1.481c-0.816,0-1.482-0.666-1.482-1.481s0.666-1.481,1.482-1.481
			C308.283,217.68,308.943,218.34,308.943,219.161z"/>
		<path d="M312.686,217.129c-0.028,0.189-0.039,0.346-0.039,0.646v2.69c0,0.298,0.011,0.456,0.039,0.646h-0.761
			c0.03-0.189,0.04-0.352,0.04-0.646v-2.69c0-0.312-0.01-0.445-0.04-0.646H312.686z"/>
		<path d="M316.793,219.896c-0.096,0.358-0.186,0.556-0.336,0.75c-0.285,0.352-0.766,0.547-1.366,0.547
			c-0.545,0-0.979-0.166-1.286-0.48c-0.35-0.365-0.545-0.932-0.545-1.572c0-0.66,0.21-1.24,0.585-1.615
			c0.302-0.307,0.751-0.477,1.251-0.477c0.393,0,0.688,0.075,0.961,0.24c0.228,0.141,0.406,0.324,0.531,0.546
			c0.061,0.104,0.096,0.194,0.155,0.386l-0.696,0.159c-0.07-0.22-0.115-0.315-0.215-0.431c-0.17-0.205-0.421-0.311-0.73-0.311
			c-0.711,0-1.142,0.557-1.142,1.478c0,0.915,0.44,1.485,1.142,1.485c0.352,0,0.65-0.137,0.812-0.369
			c0.085-0.127,0.125-0.23,0.165-0.461L316.793,219.896z"/>
		<path d="M320.777,217.129c-0.028,0.205-0.039,0.355-0.039,0.641v2.697c0,0.291,0.011,0.436,0.039,0.646h-0.744
			c0.029-0.195,0.04-0.352,0.04-0.646v-1.131h-2.015v1.131c0,0.291,0.012,0.44,0.041,0.646h-0.744
			c0.028-0.19,0.039-0.352,0.039-0.646v-2.691c0-0.295-0.011-0.449-0.039-0.646h0.744c-0.029,0.21-0.041,0.375-0.041,0.642v0.967
			h2.015v-0.961c0-0.285-0.011-0.467-0.04-0.646h0.744V217.129z"/>
		<path d="M322.246,217.129c-0.03,0.189-0.04,0.346-0.04,0.646v2.69c0,0.298,0.01,0.456,0.04,0.646h-0.762
			c0.029-0.189,0.041-0.352,0.041-0.646v-2.69c0-0.312-0.012-0.445-0.041-0.646H322.246z"/>
		<path d="M325.559,221.113c-0.086-0.172-0.176-0.315-0.319-0.536l-1.291-1.946c-0.097-0.15-0.222-0.365-0.341-0.602
			c0.004,0.07,0.004,0.07,0.021,0.256c0.005,0.095,0.015,0.32,0.015,0.436v1.644c0,0.335,0.018,0.569,0.041,0.751h-0.729
			c0.022-0.166,0.04-0.416,0.04-0.758v-2.582c0-0.26-0.01-0.439-0.04-0.646h0.78c0.045,0.125,0.136,0.274,0.306,0.53l1.267,1.906
			c0.121,0.181,0.28,0.439,0.392,0.642c-0.021-0.194-0.034-0.496-0.034-0.706v-1.684c0-0.295-0.012-0.5-0.041-0.688h0.73
			c-0.029,0.2-0.041,0.388-0.041,0.688v2.647c0,0.28,0.012,0.472,0.041,0.646h-0.793v0.002H325.559z"/>
		<path d="M330.104,217.549c0.364,0.366,0.562,0.911,0.562,1.562c0,1.266-0.735,2.087-1.872,2.087c-1.136,0-1.866-0.816-1.866-2.087
			c0-0.646,0.2-1.201,0.57-1.562c0.345-0.34,0.761-0.5,1.291-0.5C329.337,217.049,329.762,217.209,330.104,217.549z
			 M329.963,219.111c0-0.506-0.141-0.911-0.396-1.168c-0.205-0.199-0.471-0.305-0.771-0.305c-0.721,0-1.176,0.569-1.176,1.478
			c0,0.5,0.146,0.921,0.405,1.181c0.205,0.2,0.471,0.307,0.773,0.307C329.518,220.604,329.963,220.031,329.963,219.111z"/>
		<path d="M333.062,221.113c-0.024-0.16-0.104-0.396-0.222-0.676l-0.721-1.717c-0.097-0.228-0.142-0.361-0.257-0.768
			c0.021,0.265,0.041,0.676,0.041,0.785v1.642c0,0.347,0.011,0.536,0.039,0.729h-0.699c0.029-0.199,0.04-0.396,0.04-0.729v-2.513
			c0-0.325-0.011-0.535-0.04-0.74h0.916c0.035,0.176,0.1,0.387,0.185,0.598l1.019,2.48l1.011-2.48
			c0.101-0.246,0.146-0.406,0.18-0.598h0.923c-0.029,0.24-0.041,0.405-0.041,0.74v2.513c0,0.365,0.012,0.546,0.041,0.729h-0.701
			c0.029-0.205,0.041-0.385,0.041-0.729v-1.659c0.021-0.438,0.033-0.691,0.039-0.768c-0.064,0.271-0.16,0.55-0.229,0.729
			l-0.75,1.762c-0.101,0.236-0.19,0.518-0.222,0.666h-0.592V221.113L333.062,221.113z"/>
		<path d="M336.939,217.129c-0.029,0.189-0.039,0.346-0.039,0.646v2.69c0,0.298,0.01,0.456,0.039,0.646h-0.762
			c0.03-0.189,0.04-0.352,0.04-0.646v-2.69c0-0.312-0.01-0.445-0.04-0.646H336.939z"/>
		<path d="M338.811,221.113c0.025-0.19,0.041-0.391,0.041-0.646v-0.99l-1.156-1.832c-0.074-0.119-0.189-0.285-0.352-0.516h0.877
			c0.039,0.135,0.104,0.271,0.239,0.49l0.726,1.23l0.736-1.228c0.125-0.215,0.2-0.365,0.235-0.495h0.87
			c-0.069,0.102-0.262,0.375-0.346,0.518l-1.156,1.836v0.984c0,0.251,0.011,0.456,0.041,0.646h-0.756V221.113L338.811,221.113z"/>
		<path d="M343.697,221.113c-0.03-0.166-0.086-0.381-0.141-0.526l-0.199-0.545h-1.604l-0.199,0.545
			c-0.092,0.24-0.109,0.315-0.15,0.526h-0.82c0.075-0.137,0.176-0.361,0.266-0.592l1.104-2.889c0.095-0.251,0.135-0.376,0.16-0.506
			h0.869c0.024,0.12,0.057,0.2,0.172,0.506l1.109,2.889c0.125,0.319,0.187,0.461,0.256,0.592H343.697z M342.643,217.984
			c-0.021-0.055-0.035-0.115-0.092-0.28c-0.08,0.235-0.08,0.235-0.095,0.28l-0.521,1.479h1.24L342.643,217.984z"/>
	</g>
</g>
<g id="maruki">
	<g>
		<path fill="#D70D19" d="M118.887,280.193c0.367,0.399,0.565,0.926,0.565,1.471c0,1.218-0.985,2.203-2.2,2.203
			c-1.218,0-2.203-0.985-2.203-2.203c0-0.629,0.256-1.2,0.73-1.635c0.391-0.355,0.936-0.565,1.473-0.565
			C117.887,279.463,118.457,279.718,118.887,280.193z M115.744,280.312c-0.335,0.371-0.521,0.852-0.521,1.352
			c0,1.117,0.906,2.021,2.021,2.021c1.111,0,2.018-0.904,2.018-2.021c0-0.584-0.229-1.102-0.67-1.5
			c-0.355-0.33-0.855-0.521-1.348-0.521C116.66,279.643,116.141,279.878,115.744,280.312z M118.732,281.675
			c0,0.815-0.66,1.481-1.48,1.481c-0.815,0-1.481-0.666-1.481-1.481s0.666-1.481,1.481-1.481
			C118.071,280.193,118.732,280.854,118.732,281.675z"/>
		<path d="M123.529,283.627c-0.023-0.16-0.104-0.396-0.22-0.676l-0.722-1.717c-0.096-0.228-0.141-0.361-0.256-0.768
			c0.021,0.266,0.041,0.676,0.041,0.785v1.643c0,0.346,0.01,0.535,0.039,0.729h-0.699c0.029-0.2,0.039-0.396,0.039-0.729v-2.514
			c0-0.324-0.01-0.535-0.039-0.74h0.916c0.035,0.176,0.1,0.387,0.185,0.598l1.017,2.48l1.012-2.48c0.1-0.246,0.146-0.406,0.18-0.598
			h0.922c-0.03,0.24-0.041,0.405-0.041,0.74v2.514c0,0.364,0.011,0.545,0.041,0.729h-0.701c0.03-0.205,0.04-0.385,0.04-0.729v-1.66
			c0.021-0.438,0.035-0.691,0.04-0.768c-0.064,0.271-0.16,0.551-0.23,0.729l-0.75,1.763c-0.101,0.235-0.189,0.517-0.221,0.666
			h-0.592L123.529,283.627L123.529,283.627z"/>
		<path d="M129.461,283.627c-0.029-0.166-0.084-0.381-0.14-0.525l-0.2-0.545h-1.602l-0.2,0.545c-0.091,0.239-0.11,0.314-0.149,0.525
			h-0.822c0.076-0.137,0.177-0.361,0.267-0.592l1.101-2.889c0.097-0.25,0.137-0.375,0.16-0.506h0.871
			c0.025,0.12,0.057,0.2,0.17,0.506l1.111,2.889c0.125,0.32,0.186,0.461,0.256,0.592H129.461z M128.405,280.498
			c-0.021-0.055-0.035-0.115-0.09-0.28c-0.08,0.235-0.08,0.235-0.097,0.28l-0.521,1.48h1.241L128.405,280.498z"/>
		<path d="M133.231,283.627c-0.011-0.121-0.095-0.377-0.261-0.801c-0.271-0.691-0.444-0.877-0.83-0.877h-0.746v1.021
			c0,0.301,0.011,0.461,0.041,0.655h-0.746c0.029-0.211,0.04-0.347,0.04-0.651v-2.695c0-0.268-0.011-0.416-0.04-0.65
			c0.21,0.01,0.365,0.016,0.641,0.016h1.201c0.762,0,1.196,0.381,1.196,1.041c0,0.319-0.085,0.569-0.257,0.746
			c-0.139,0.146-0.27,0.209-0.555,0.289c0.314,0.1,0.41,0.24,0.905,1.411c0.04,0.091,0.165,0.36,0.235,0.496L133.231,283.627
			L133.231,283.627z M132.401,281.379c0.185,0,0.36-0.064,0.476-0.18c0.104-0.105,0.16-0.25,0.16-0.44
			c0-0.36-0.205-0.546-0.615-0.546h-1.026v1.166H132.401z"/>
		<path d="M137.996,279.643c-0.029,0.187-0.039,0.365-0.039,0.683v1.774c0,1.037-0.615,1.617-1.707,1.617
			c-0.557,0-1.017-0.17-1.291-0.471c-0.256-0.275-0.375-0.65-0.375-1.15v-1.768c0-0.312-0.012-0.506-0.041-0.688h0.745
			c-0.028,0.17-0.04,0.36-0.04,0.688v1.768c0,0.676,0.352,1.029,1.026,1.029c0.671,0,1.017-0.354,1.017-1.035v-1.762
			c0-0.32-0.011-0.5-0.041-0.688L137.996,279.643L137.996,279.643z"/>
		<path d="M141.676,282.992c0.302,0.404,0.355,0.476,0.502,0.635h-0.926c-0.076-0.148-0.201-0.359-0.315-0.525l-0.996-1.399
			l-0.546,0.545v0.735c0,0.295,0.01,0.437,0.045,0.646h-0.74c0.03-0.226,0.04-0.381,0.04-0.646v-2.692
			c0-0.271-0.01-0.437-0.04-0.646h0.74c-0.029,0.164-0.045,0.359-0.045,0.646v1.166l1.275-1.325c0.195-0.199,0.291-0.32,0.392-0.484
			h0.946c-0.146,0.146-0.312,0.307-0.531,0.529l-1.07,1.098L141.676,282.992z"/>
		<path d="M143.359,279.643c-0.03,0.189-0.04,0.347-0.04,0.646v2.691c0,0.297,0.01,0.455,0.04,0.646h-0.762
			c0.031-0.19,0.041-0.353,0.041-0.646v-2.691c0-0.312-0.01-0.445-0.041-0.646H143.359z"/>
	</g>
</g>
<g id="taito">
	<g>
		<path fill="#D70D19" d="M174.598,223.18c0.367,0.4,0.566,0.926,0.566,1.471c0,1.219-0.986,2.203-2.201,2.203
			c-1.217,0-2.203-0.984-2.203-2.203c0-0.629,0.256-1.199,0.73-1.635c0.391-0.354,0.936-0.564,1.473-0.564
			C173.598,222.449,174.168,222.704,174.598,223.18z M171.455,223.3c-0.334,0.37-0.52,0.851-0.52,1.351
			c0,1.117,0.904,2.022,2.021,2.022c1.11,0,2.019-0.905,2.019-2.022c0-0.584-0.229-1.101-0.673-1.5
			c-0.354-0.33-0.854-0.521-1.346-0.521C172.371,222.629,171.852,222.863,171.455,223.3z M174.443,224.661
			c0,0.815-0.66,1.481-1.48,1.481c-0.816,0-1.482-0.666-1.482-1.481s0.666-1.481,1.482-1.481
			C173.783,223.18,174.443,223.84,174.443,224.661z"/>
		<path d="M179.182,225.962c0,0.271,0.01,0.445,0.039,0.651h-0.756c0.031-0.211,0.041-0.381,0.041-0.651v-2.731h-0.676
			c-0.295,0-0.512,0.011-0.686,0.035v-0.672c0.18,0.025,0.395,0.035,0.68,0.035h1.982c0.357,0,0.545-0.01,0.734-0.035v0.672
			c-0.188-0.024-0.377-0.035-0.734-0.035h-0.625V225.962L179.182,225.962z"/>
		<path d="M183.232,226.613c-0.031-0.166-0.086-0.381-0.143-0.526l-0.197-0.545h-1.604l-0.201,0.545
			c-0.09,0.24-0.107,0.315-0.148,0.526h-0.82c0.074-0.137,0.176-0.361,0.266-0.592l1.102-2.889c0.096-0.251,0.137-0.376,0.16-0.506
			h0.869c0.025,0.12,0.059,0.2,0.172,0.506l1.109,2.889c0.125,0.319,0.186,0.461,0.256,0.592H183.232z M182.176,223.484
			c-0.02-0.055-0.035-0.115-0.09-0.28c-0.08,0.235-0.08,0.235-0.096,0.28l-0.52,1.479h1.238L182.176,223.484z"/>
		<path d="M185.221,222.629c-0.031,0.189-0.041,0.346-0.041,0.646v2.69c0,0.298,0.01,0.456,0.041,0.646h-0.762
			c0.031-0.189,0.041-0.352,0.041-0.646v-2.69c0-0.312-0.01-0.445-0.041-0.646H185.221z"/>
		<path d="M187.682,225.962c0,0.271,0.01,0.445,0.039,0.651h-0.756c0.031-0.211,0.041-0.381,0.041-0.651v-2.731h-0.676
			c-0.295,0-0.512,0.011-0.686,0.035v-0.672c0.18,0.025,0.395,0.035,0.68,0.035h1.982c0.357,0,0.545-0.01,0.734-0.035v0.672
			c-0.188-0.024-0.377-0.035-0.734-0.035h-0.625V225.962L187.682,225.962z"/>
		<path d="M192.518,223.049c0.365,0.366,0.562,0.911,0.562,1.562c0,1.266-0.736,2.087-1.873,2.087s-1.865-0.816-1.865-2.087
			c0-0.646,0.199-1.201,0.57-1.562c0.346-0.34,0.76-0.5,1.291-0.5C191.752,222.549,192.178,222.709,192.518,223.049z
			 M192.377,224.611c0-0.506-0.141-0.911-0.395-1.168c-0.205-0.199-0.471-0.305-0.771-0.305c-0.721,0-1.176,0.569-1.176,1.478
			c0,0.5,0.145,0.921,0.404,1.181c0.205,0.2,0.471,0.307,0.775,0.307C191.932,226.104,192.377,225.531,192.377,224.611z"/>
	</g>
</g>
<g id="ichinomiya">
	<g>
		<path fill="#D70D19" d="M171.6,208.68c0.365,0.4,0.564,0.926,0.564,1.471c0,1.219-0.984,2.203-2.201,2.203
			s-2.203-0.984-2.203-2.203c0-0.629,0.256-1.199,0.731-1.635c0.39-0.354,0.936-0.564,1.472-0.564
			C170.598,207.949,171.169,208.204,171.6,208.68z M168.456,208.8c-0.335,0.37-0.521,0.851-0.521,1.351
			c0,1.117,0.904,2.022,2.021,2.022c1.11,0,2.019-0.905,2.019-2.022c0-0.584-0.229-1.101-0.672-1.5
			c-0.354-0.33-0.854-0.521-1.347-0.521C169.372,208.129,168.852,208.363,168.456,208.8z M171.443,210.161
			c0,0.815-0.66,1.481-1.48,1.481c-0.816,0-1.482-0.666-1.482-1.481s0.666-1.481,1.482-1.481
			C170.783,208.68,171.443,209.34,171.443,210.161z"/>
		<path d="M175.186,208.129c-0.028,0.189-0.039,0.346-0.039,0.646v2.69c0,0.298,0.011,0.456,0.039,0.646h-0.761
			c0.03-0.189,0.04-0.352,0.04-0.646v-2.69c0-0.312-0.01-0.445-0.04-0.646H175.186z"/>
		<path d="M179.293,210.896c-0.096,0.358-0.186,0.556-0.336,0.75c-0.285,0.352-0.766,0.547-1.366,0.547
			c-0.545,0-0.979-0.166-1.286-0.48c-0.35-0.365-0.545-0.932-0.545-1.572c0-0.66,0.211-1.24,0.586-1.615
			c0.301-0.307,0.75-0.477,1.25-0.477c0.391,0,0.688,0.075,0.961,0.24c0.228,0.141,0.406,0.324,0.531,0.546
			c0.061,0.104,0.096,0.194,0.155,0.386l-0.696,0.159c-0.07-0.22-0.115-0.315-0.215-0.431c-0.17-0.205-0.421-0.311-0.73-0.311
			c-0.711,0-1.142,0.557-1.142,1.478c0,0.915,0.44,1.485,1.142,1.485c0.352,0,0.65-0.137,0.812-0.369
			c0.085-0.127,0.125-0.23,0.165-0.461L179.293,210.896z"/>
		<path d="M183.277,208.129c-0.028,0.205-0.039,0.355-0.039,0.641v2.697c0,0.291,0.011,0.436,0.039,0.646h-0.744
			c0.029-0.195,0.039-0.352,0.039-0.646v-1.131h-2.012v1.131c0,0.291,0.01,0.44,0.041,0.646h-0.746
			c0.028-0.19,0.039-0.352,0.039-0.646v-2.691c0-0.295-0.011-0.449-0.039-0.646h0.746c-0.031,0.21-0.041,0.375-0.041,0.642v0.967
			h2.012v-0.961c0-0.285-0.01-0.467-0.039-0.646h0.744V208.129z"/>
		<path d="M184.746,208.129c-0.03,0.189-0.04,0.346-0.04,0.646v2.69c0,0.298,0.01,0.456,0.04,0.646h-0.762
			c0.031-0.189,0.041-0.352,0.041-0.646v-2.69c0-0.312-0.01-0.445-0.041-0.646H184.746z"/>
		<path d="M188.059,212.113c-0.086-0.172-0.176-0.315-0.32-0.536l-1.29-1.946c-0.097-0.15-0.222-0.365-0.343-0.602
			c0.006,0.07,0.006,0.07,0.021,0.256c0.005,0.095,0.016,0.32,0.016,0.436v1.644c0,0.335,0.017,0.569,0.039,0.751h-0.729
			c0.023-0.166,0.04-0.416,0.04-0.758v-2.582c0-0.26-0.011-0.439-0.04-0.646h0.779c0.045,0.125,0.137,0.274,0.307,0.53l1.268,1.906
			c0.119,0.181,0.279,0.439,0.391,0.642c-0.021-0.194-0.034-0.496-0.034-0.706v-1.684c0-0.295-0.011-0.5-0.041-0.688h0.731
			c-0.031,0.2-0.041,0.388-0.041,0.688v2.647c0,0.28,0.01,0.472,0.041,0.646h-0.793v0.002H188.059z"/>
		<path d="M192.604,208.549c0.364,0.366,0.562,0.911,0.562,1.562c0,1.266-0.733,2.087-1.872,2.087c-1.136,0-1.865-0.816-1.865-2.087
			c0-0.646,0.199-1.201,0.569-1.562c0.345-0.34,0.761-0.5,1.291-0.5C191.837,208.049,192.262,208.209,192.604,208.549z
			 M192.463,210.111c0-0.506-0.141-0.911-0.396-1.168c-0.205-0.199-0.471-0.305-0.771-0.305c-0.721,0-1.176,0.569-1.176,1.478
			c0,0.5,0.146,0.921,0.405,1.181c0.205,0.2,0.471,0.307,0.773,0.307C192.018,211.604,192.463,211.031,192.463,210.111z"/>
		<path d="M195.562,212.113c-0.024-0.16-0.104-0.396-0.222-0.676l-0.721-1.717c-0.097-0.228-0.142-0.361-0.256-0.768
			c0.021,0.265,0.038,0.676,0.038,0.785v1.642c0,0.347,0.013,0.536,0.041,0.729h-0.699c0.029-0.199,0.04-0.396,0.04-0.729v-2.513
			c0-0.325-0.011-0.535-0.04-0.74h0.916c0.033,0.176,0.102,0.387,0.186,0.598l1.018,2.48l1.011-2.48
			c0.101-0.246,0.146-0.406,0.181-0.598h0.922c-0.031,0.24-0.041,0.405-0.041,0.74v2.513c0,0.365,0.01,0.546,0.041,0.729h-0.701
			c0.029-0.205,0.039-0.385,0.039-0.729v-1.659c0.021-0.438,0.035-0.691,0.041-0.768c-0.064,0.271-0.16,0.55-0.229,0.729
			l-0.75,1.762c-0.103,0.236-0.188,0.518-0.221,0.666h-0.593V212.113L195.562,212.113z"/>
		<path d="M199.439,208.129c-0.029,0.189-0.039,0.346-0.039,0.646v2.69c0,0.298,0.01,0.456,0.039,0.646h-0.76
			c0.028-0.189,0.038-0.352,0.038-0.646v-2.69c0-0.312-0.01-0.445-0.038-0.646H199.439z"/>
		<path d="M201.311,212.113c0.025-0.19,0.041-0.391,0.041-0.646v-0.99l-1.156-1.832c-0.074-0.119-0.189-0.285-0.352-0.516h0.877
			c0.039,0.135,0.104,0.271,0.239,0.49l0.726,1.23l0.736-1.228c0.125-0.215,0.2-0.365,0.235-0.495h0.87
			c-0.069,0.102-0.26,0.375-0.346,0.518l-1.156,1.836v0.984c0,0.251,0.011,0.456,0.041,0.646h-0.756V212.113L201.311,212.113z"/>
		<path d="M206.197,212.113c-0.03-0.166-0.086-0.381-0.141-0.526l-0.199-0.545h-1.604l-0.199,0.545
			c-0.092,0.24-0.109,0.315-0.15,0.526h-0.82c0.075-0.137,0.176-0.361,0.266-0.592l1.104-2.889c0.095-0.251,0.135-0.376,0.158-0.506
			h0.871c0.024,0.12,0.057,0.2,0.17,0.506l1.111,2.889c0.125,0.319,0.187,0.461,0.256,0.592H206.197z M205.143,208.984
			c-0.021-0.055-0.035-0.115-0.092-0.28c-0.08,0.235-0.08,0.235-0.095,0.28l-0.521,1.479h1.239L205.143,208.984z"/>
	</g>
</g>
<g id="heisaura">
	<path fill="#D70D19" d="M35.689,332.325c0.365,0.4,0.565,0.926,0.565,1.471c0,1.217-0.986,2.203-2.202,2.203
		s-2.202-0.986-2.202-2.203c0-0.63,0.255-1.201,0.73-1.636c0.391-0.355,0.936-0.565,1.472-0.565
		C34.688,331.595,35.259,331.85,35.689,332.325z M32.546,332.445c-0.335,0.37-0.521,0.851-0.521,1.351
		c0,1.116,0.906,2.022,2.022,2.022c1.111,0,2.017-0.906,2.017-2.022c0-0.585-0.23-1.101-0.67-1.501
		c-0.355-0.33-0.856-0.521-1.346-0.521C33.462,331.774,32.941,332.01,32.546,332.445z M35.534,333.807
		c0,0.815-0.661,1.481-1.481,1.481c-0.816,0-1.481-0.666-1.481-1.481c0-0.816,0.666-1.481,1.481-1.481
		C34.874,332.325,35.534,332.985,35.534,333.807z"/>
	<path d="M41.939,331.774c-0.03,0.205-0.04,0.355-0.04,0.641v2.697c0,0.291,0.01,0.436,0.04,0.646h-0.746
		c0.03-0.195,0.04-0.351,0.04-0.646v-1.131h-2.012v1.131c0,0.291,0.01,0.44,0.04,0.646h-0.746c0.03-0.19,0.04-0.351,0.04-0.646
		v-2.692c0-0.295-0.01-0.45-0.04-0.646h0.746c-0.03,0.21-0.04,0.375-0.04,0.641v0.966h2.012v-0.961c0-0.285-0.01-0.466-0.04-0.646
		H41.939z"/>
	<path d="M45.488,335.793c-0.18-0.024-0.34-0.034-0.646-0.034h-1.562c-0.301,0-0.436,0.005-0.636,0.015
		c0.03-0.2,0.04-0.365,0.04-0.661v-2.707c0-0.261-0.01-0.41-0.04-0.646c0.2,0.01,0.33,0.015,0.636,0.015h1.511
		c0.25,0,0.416-0.01,0.646-0.035v0.661c-0.19-0.025-0.35-0.035-0.646-0.035h-1.441v1.03h1.216c0.26,0,0.43-0.01,0.65-0.034v0.655
		c-0.205-0.03-0.34-0.035-0.65-0.035h-1.221v1.182h1.501c0.28,0,0.425-0.011,0.641-0.035V335.793z"/>
	<path d="M46.832,331.774c-0.03,0.19-0.04,0.346-0.04,0.646v2.692c0,0.296,0.01,0.456,0.04,0.646h-0.761
		c0.03-0.19,0.04-0.351,0.04-0.646v-2.692c0-0.311-0.01-0.445-0.04-0.646H46.832z"/>
	<path d="M48.126,334.517c0.02,0.226,0.05,0.326,0.14,0.441c0.145,0.189,0.406,0.295,0.731,0.295c0.5,0,0.801-0.226,0.801-0.601
		c0-0.205-0.095-0.376-0.25-0.461c-0.15-0.08-0.18-0.085-0.871-0.245c-0.375-0.085-0.576-0.165-0.756-0.305
		c-0.255-0.2-0.385-0.476-0.385-0.812c0-0.695,0.561-1.146,1.421-1.146c0.57,0,1.001,0.175,1.246,0.505
		c0.125,0.165,0.185,0.315,0.245,0.581l-0.716,0.085c-0.03-0.17-0.065-0.255-0.15-0.355c-0.13-0.155-0.35-0.24-0.625-0.24
		c-0.436,0-0.731,0.221-0.731,0.546c0,0.21,0.11,0.355,0.34,0.455c0.11,0.045,0.15,0.055,0.706,0.181
		c0.395,0.085,0.635,0.18,0.815,0.305c0.285,0.21,0.416,0.485,0.416,0.861c0,0.355-0.11,0.646-0.315,0.851
		c-0.265,0.255-0.661,0.381-1.196,0.381c-0.411,0-0.811-0.101-1.051-0.261c-0.2-0.135-0.345-0.325-0.44-0.57
		c-0.045-0.115-0.065-0.21-0.095-0.416L48.126,334.517z"/>
	<path d="M53.923,335.759c-0.03-0.166-0.085-0.381-0.14-0.526l-0.2-0.545h-1.602l-0.2,0.545c-0.09,0.24-0.11,0.315-0.15,0.526
		h-0.821c0.075-0.136,0.175-0.361,0.265-0.591l1.101-2.888c0.095-0.251,0.135-0.376,0.16-0.506h0.871
		c0.025,0.12,0.055,0.2,0.17,0.506l1.111,2.888c0.125,0.32,0.185,0.46,0.255,0.591H53.923z M52.867,332.63
		c-0.02-0.055-0.035-0.115-0.09-0.28c-0.08,0.235-0.08,0.235-0.095,0.28l-0.521,1.481h1.241L52.867,332.63z"/>
	<path d="M58.594,331.774c-0.03,0.186-0.04,0.365-0.04,0.681v1.776c0,1.036-0.616,1.617-1.707,1.617
		c-0.556,0-1.016-0.17-1.292-0.471c-0.255-0.275-0.375-0.65-0.375-1.151v-1.767c0-0.311-0.01-0.506-0.04-0.686h0.746
		c-0.03,0.17-0.04,0.36-0.04,0.686v1.767c0,0.676,0.35,1.031,1.026,1.031c0.67,0,1.016-0.355,1.016-1.036v-1.762
		c0-0.32-0.01-0.5-0.04-0.686H58.594z"/>
	<path d="M61.838,335.759c-0.01-0.121-0.095-0.376-0.26-0.801c-0.271-0.691-0.445-0.876-0.831-0.876h-0.746v1.021
		c0,0.301,0.01,0.461,0.04,0.656h-0.746c0.03-0.211,0.04-0.346,0.04-0.651v-2.697c0-0.266-0.01-0.415-0.04-0.65
		c0.21,0.01,0.365,0.015,0.641,0.015h1.201c0.761,0,1.196,0.381,1.196,1.041c0,0.32-0.085,0.57-0.255,0.746
		c-0.14,0.145-0.271,0.21-0.556,0.29c0.315,0.1,0.411,0.24,0.906,1.411c0.04,0.09,0.165,0.36,0.235,0.496H61.838z M61.007,333.511
		c0.185,0,0.36-0.064,0.476-0.18c0.105-0.105,0.16-0.25,0.16-0.44c0-0.36-0.205-0.546-0.616-0.546h-1.026v1.166H61.007z"/>
	<path d="M65.973,335.759c-0.03-0.166-0.085-0.381-0.14-0.526l-0.2-0.545h-1.602l-0.2,0.545c-0.09,0.24-0.11,0.315-0.15,0.526H62.86
		c0.075-0.136,0.175-0.361,0.265-0.591l1.101-2.888c0.095-0.251,0.135-0.376,0.16-0.506h0.871c0.025,0.12,0.055,0.2,0.17,0.506
		l1.111,2.888c0.125,0.32,0.185,0.46,0.255,0.591H65.973z M64.917,332.63c-0.02-0.055-0.035-0.115-0.09-0.28
		c-0.08,0.235-0.08,0.235-0.095,0.28l-0.521,1.481h1.241L64.917,332.63z"/>
</g>
</svg>
